<mxfile host="app.diagrams.net" modified="2024-05-06T22:03:15.310Z" agent="Mozilla/5.0 (Windows NT 10.0; Win64; x64) AppleWebKit/537.36 (KHTML, like Gecko) Chrome/124.0.0.0 Safari/537.36" etag="srgXJlaMrv0eyy4McFpk" version="24.3.1" type="onedrive">
  <diagram name="Strona-1" id="Z-8fy4U7LTjAwe9fAACf">
    <mxGraphModel grid="0" page="0" gridSize="10" guides="1" tooltips="1" connect="1" arrows="1" fold="1" pageScale="1" pageWidth="827" pageHeight="1169" math="0" shadow="0">
      <root>
        <mxCell id="0" />
        <mxCell id="1" parent="0" />
        <mxCell id="duZjUQYaqQUHjqYcm7z--2" value="" style="rounded=0;whiteSpace=wrap;html=1;" vertex="1" parent="1">
          <mxGeometry x="-611" y="-119" width="372" height="300" as="geometry" />
        </mxCell>
        <mxCell id="duZjUQYaqQUHjqYcm7z--3" value="" style="image;aspect=fixed;html=1;points=[];align=center;fontSize=12;image=img/lib/azure2/storage/Data_Lake_Storage_Gen1.svg;" vertex="1" parent="1">
          <mxGeometry x="-360" y="-20" width="100.92" height="82" as="geometry" />
        </mxCell>
        <mxCell id="duZjUQYaqQUHjqYcm7z--6" style="edgeStyle=none;curved=1;rounded=0;orthogonalLoop=1;jettySize=auto;html=1;exitX=0.5;exitY=1;exitDx=0;exitDy=0;fontSize=12;startSize=8;endSize=8;" edge="1" parent="1" source="duZjUQYaqQUHjqYcm7z--2" target="duZjUQYaqQUHjqYcm7z--2">
          <mxGeometry relative="1" as="geometry" />
        </mxCell>
        <mxCell id="duZjUQYaqQUHjqYcm7z--15" value="" style="shape=cylinder3;whiteSpace=wrap;html=1;boundedLbl=1;backgroundOutline=1;size=15;" vertex="1" parent="1">
          <mxGeometry x="-521" y="-113" width="60" height="80" as="geometry" />
        </mxCell>
        <mxCell id="duZjUQYaqQUHjqYcm7z--16" value="" style="shape=cylinder3;whiteSpace=wrap;html=1;boundedLbl=1;backgroundOutline=1;size=15;" vertex="1" parent="1">
          <mxGeometry x="-475" y="-5" width="60" height="80" as="geometry" />
        </mxCell>
        <mxCell id="duZjUQYaqQUHjqYcm7z--17" value="" style="shape=cylinder3;whiteSpace=wrap;html=1;boundedLbl=1;backgroundOutline=1;size=15;" vertex="1" parent="1">
          <mxGeometry x="-526" y="94" width="60" height="80" as="geometry" />
        </mxCell>
        <mxCell id="duZjUQYaqQUHjqYcm7z--20" value="" style="endArrow=classic;html=1;rounded=0;fontSize=12;startSize=8;endSize=8;curved=1;" edge="1" parent="1" target="duZjUQYaqQUHjqYcm7z--3">
          <mxGeometry width="50" height="50" relative="1" as="geometry">
            <mxPoint x="-466" y="-60" as="sourcePoint" />
            <mxPoint x="-387" y="-23.996601266800553" as="targetPoint" />
          </mxGeometry>
        </mxCell>
        <mxCell id="duZjUQYaqQUHjqYcm7z--21" value="" style="endArrow=classic;html=1;rounded=0;fontSize=12;startSize=8;endSize=8;curved=1;" edge="1" parent="1" source="duZjUQYaqQUHjqYcm7z--16">
          <mxGeometry width="50" height="50" relative="1" as="geometry">
            <mxPoint x="-456" y="-50" as="sourcePoint" />
            <mxPoint x="-350" y="5" as="targetPoint" />
            <Array as="points">
              <mxPoint x="-331" y="50" />
            </Array>
          </mxGeometry>
        </mxCell>
        <mxCell id="duZjUQYaqQUHjqYcm7z--22" value="" style="endArrow=classic;html=1;rounded=0;fontSize=12;startSize=8;endSize=8;curved=1;" edge="1" parent="1" source="duZjUQYaqQUHjqYcm7z--17" target="duZjUQYaqQUHjqYcm7z--3">
          <mxGeometry width="50" height="50" relative="1" as="geometry">
            <mxPoint x="-456" y="-50" as="sourcePoint" />
            <mxPoint x="-350" y="5" as="targetPoint" />
          </mxGeometry>
        </mxCell>
        <mxCell id="duZjUQYaqQUHjqYcm7z--23" value="" style="rounded=0;whiteSpace=wrap;html=1;" vertex="1" parent="1">
          <mxGeometry x="-99" y="-120" width="291" height="300" as="geometry" />
        </mxCell>
        <mxCell id="duZjUQYaqQUHjqYcm7z--25" value="" style="image;aspect=fixed;html=1;points=[];align=center;fontSize=12;image=img/lib/azure2/analytics/Stream_Analytics_Jobs.svg;" vertex="1" parent="1">
          <mxGeometry x="-8.739999999999998" y="38.5" width="98.48" height="84" as="geometry" />
        </mxCell>
        <mxCell id="duZjUQYaqQUHjqYcm7z--26" value="" style="image;sketch=0;aspect=fixed;html=1;points=[];align=center;fontSize=12;image=img/lib/mscae/Databricks.svg;" vertex="1" parent="1">
          <mxGeometry x="8.49" y="-92" width="81.25" height="78" as="geometry" />
        </mxCell>
        <mxCell id="duZjUQYaqQUHjqYcm7z--30" value="" style="endArrow=classic;html=1;rounded=0;fontSize=12;startSize=8;endSize=8;curved=1;exitX=1;exitY=0.5;exitDx=0;exitDy=0;entryX=0;entryY=0.5;entryDx=0;entryDy=0;" edge="1" parent="1" source="duZjUQYaqQUHjqYcm7z--2" target="duZjUQYaqQUHjqYcm7z--23">
          <mxGeometry width="50" height="50" relative="1" as="geometry">
            <mxPoint x="190" y="221" as="sourcePoint" />
            <mxPoint x="240" y="171" as="targetPoint" />
          </mxGeometry>
        </mxCell>
        <mxCell id="duZjUQYaqQUHjqYcm7z--31" value="" style="rounded=0;whiteSpace=wrap;html=1;" vertex="1" parent="1">
          <mxGeometry x="367" y="-117" width="291" height="300" as="geometry" />
        </mxCell>
        <mxCell id="duZjUQYaqQUHjqYcm7z--33" value="" style="sketch=0;points=[[0,0,0],[0.25,0,0],[0.5,0,0],[0.75,0,0],[1,0,0],[0,1,0],[0.25,1,0],[0.5,1,0],[0.75,1,0],[1,1,0],[0,0.25,0],[0,0.5,0],[0,0.75,0],[1,0.25,0],[1,0.5,0],[1,0.75,0]];outlineConnect=0;fontColor=#232F3E;fillColor=#01A88D;strokeColor=#ffffff;dashed=0;verticalLabelPosition=bottom;verticalAlign=top;align=center;html=1;fontSize=12;fontStyle=0;aspect=fixed;shape=mxgraph.aws4.resourceIcon;resIcon=mxgraph.aws4.tensorflow_on_aws;" vertex="1" parent="1">
          <mxGeometry x="464.5" y="-66" width="78" height="78" as="geometry" />
        </mxCell>
        <mxCell id="duZjUQYaqQUHjqYcm7z--34" value="" style="outlineConnect=0;dashed=0;verticalLabelPosition=bottom;verticalAlign=top;align=center;html=1;shape=mxgraph.aws3.android;fillColor=#FFD44F;gradientColor=none;" vertex="1" parent="1">
          <mxGeometry x="475.75" y="59" width="68.5" height="78" as="geometry" />
        </mxCell>
        <mxCell id="duZjUQYaqQUHjqYcm7z--35" value="" style="endArrow=classic;html=1;rounded=0;fontSize=12;startSize=8;endSize=8;curved=1;exitX=1;exitY=0.477;exitDx=0;exitDy=0;entryX=0;entryY=0.468;entryDx=0;entryDy=0;entryPerimeter=0;exitPerimeter=0;" edge="1" parent="1" source="duZjUQYaqQUHjqYcm7z--23" target="duZjUQYaqQUHjqYcm7z--31">
          <mxGeometry width="50" height="50" relative="1" as="geometry">
            <mxPoint x="211" y="21.5" as="sourcePoint" />
            <mxPoint x="351" y="20.5" as="targetPoint" />
          </mxGeometry>
        </mxCell>
        <mxCell id="duZjUQYaqQUHjqYcm7z--36" value="Zbieranie danych" style="text;strokeColor=none;fillColor=none;html=1;align=center;verticalAlign=middle;whiteSpace=wrap;rounded=0;fontSize=16;" vertex="1" parent="1">
          <mxGeometry x="-462.5" y="-165" width="139" height="30" as="geometry" />
        </mxCell>
        <mxCell id="duZjUQYaqQUHjqYcm7z--37" value="Przetwarzanie danych" style="text;strokeColor=none;fillColor=none;html=1;align=center;verticalAlign=middle;whiteSpace=wrap;rounded=0;fontSize=16;" vertex="1" parent="1">
          <mxGeometry x="-47.39" y="-165" width="193" height="30" as="geometry" />
        </mxCell>
        <mxCell id="duZjUQYaqQUHjqYcm7z--38" value="Analiza danych" style="text;strokeColor=none;fillColor=none;html=1;align=center;verticalAlign=middle;whiteSpace=wrap;rounded=0;fontSize=16;" vertex="1" parent="1">
          <mxGeometry x="407" y="-165" width="193" height="30" as="geometry" />
        </mxCell>
        <mxCell id="duZjUQYaqQUHjqYcm7z--40" value="historie zakupów" style="text;strokeColor=none;fillColor=none;html=1;align=center;verticalAlign=middle;whiteSpace=wrap;rounded=0;fontSize=16;" vertex="1" parent="1">
          <mxGeometry x="-598" y="-76" width="87" height="17" as="geometry" />
        </mxCell>
        <mxCell id="duZjUQYaqQUHjqYcm7z--41" value="przeglądane produkty" style="text;strokeColor=none;fillColor=none;html=1;align=center;verticalAlign=middle;whiteSpace=wrap;rounded=0;fontSize=16;" vertex="1" parent="1">
          <mxGeometry x="-566" y="21.5" width="87" height="17" as="geometry" />
        </mxCell>
        <mxCell id="duZjUQYaqQUHjqYcm7z--43" value="oceny i recenzje produktów" style="text;strokeColor=none;fillColor=none;html=1;align=center;verticalAlign=middle;whiteSpace=wrap;rounded=0;fontSize=16;" vertex="1" parent="1">
          <mxGeometry x="-611" y="121" width="87" height="16" as="geometry" />
        </mxCell>
        <mxCell id="duZjUQYaqQUHjqYcm7z--44" value="Azure Data Lake Storage Gen2" style="text;strokeColor=none;fillColor=none;html=1;align=center;verticalAlign=middle;whiteSpace=wrap;rounded=0;fontSize=16;" vertex="1" parent="1">
          <mxGeometry x="-377" y="82" width="128" height="17" as="geometry" />
        </mxCell>
        <mxCell id="duZjUQYaqQUHjqYcm7z--45" value="Databricks Spark" style="text;strokeColor=none;fillColor=none;html=1;align=center;verticalAlign=middle;whiteSpace=wrap;rounded=0;fontSize=16;" vertex="1" parent="1">
          <mxGeometry x="-14.89" y="-5" width="128" height="17" as="geometry" />
        </mxCell>
        <mxCell id="duZjUQYaqQUHjqYcm7z--46" value="Azure Stream Analytics" style="text;strokeColor=none;fillColor=none;html=1;align=center;verticalAlign=middle;whiteSpace=wrap;rounded=0;fontSize=16;" vertex="1" parent="1">
          <mxGeometry x="-41.25" y="137" width="175.5" height="17" as="geometry" />
        </mxCell>
        <mxCell id="duZjUQYaqQUHjqYcm7z--48" value="TensorFlow" style="text;strokeColor=none;fillColor=none;html=1;align=center;verticalAlign=middle;whiteSpace=wrap;rounded=0;fontSize=16;" vertex="1" parent="1">
          <mxGeometry x="446" y="22.5" width="128" height="17" as="geometry" />
        </mxCell>
        <mxCell id="duZjUQYaqQUHjqYcm7z--49" value="PyTorch" style="text;strokeColor=none;fillColor=none;html=1;align=center;verticalAlign=middle;whiteSpace=wrap;rounded=0;fontSize=16;" vertex="1" parent="1">
          <mxGeometry x="446" y="143" width="128" height="17" as="geometry" />
        </mxCell>
        <mxCell id="duZjUQYaqQUHjqYcm7z--51" value="" style="rounded=0;whiteSpace=wrap;html=1;" vertex="1" parent="1">
          <mxGeometry x="367" y="305" width="291" height="300" as="geometry" />
        </mxCell>
        <mxCell id="duZjUQYaqQUHjqYcm7z--52" value="" style="endArrow=classic;html=1;rounded=0;fontSize=12;startSize=8;endSize=8;curved=1;entryX=1;entryY=0.5;entryDx=0;entryDy=0;" edge="1" parent="1" target="duZjUQYaqQUHjqYcm7z--51">
          <mxGeometry width="50" height="50" relative="1" as="geometry">
            <mxPoint x="656" y="33" as="sourcePoint" />
            <mxPoint x="835" y="40" as="targetPoint" />
            <Array as="points">
              <mxPoint x="906" y="209" />
            </Array>
          </mxGeometry>
        </mxCell>
        <mxCell id="duZjUQYaqQUHjqYcm7z--54" value="Wdrażanie rekomendacji" style="text;strokeColor=none;fillColor=none;html=1;align=center;verticalAlign=middle;whiteSpace=wrap;rounded=0;fontSize=16;" vertex="1" parent="1">
          <mxGeometry x="416" y="258" width="193" height="30" as="geometry" />
        </mxCell>
        <mxCell id="duZjUQYaqQUHjqYcm7z--56" value="PowerBI" style="text;strokeColor=none;fillColor=none;html=1;align=center;verticalAlign=middle;whiteSpace=wrap;rounded=0;fontSize=16;" vertex="1" parent="1">
          <mxGeometry x="448.5" y="479" width="128" height="17" as="geometry" />
        </mxCell>
        <mxCell id="duZjUQYaqQUHjqYcm7z--57" value="" style="rounded=0;whiteSpace=wrap;html=1;" vertex="1" parent="1">
          <mxGeometry x="-96.39" y="305" width="291" height="300" as="geometry" />
        </mxCell>
        <mxCell id="duZjUQYaqQUHjqYcm7z--58" value="Optymalizacja, testy A/B" style="text;strokeColor=none;fillColor=none;html=1;align=center;verticalAlign=middle;whiteSpace=wrap;rounded=0;fontSize=16;" vertex="1" parent="1">
          <mxGeometry x="-56" y="261" width="193" height="30" as="geometry" />
        </mxCell>
        <mxCell id="duZjUQYaqQUHjqYcm7z--60" value="" style="html=1;verticalLabelPosition=bottom;align=center;labelBackgroundColor=#ffffff;verticalAlign=top;strokeWidth=2;strokeColor=#0080F0;shadow=0;dashed=0;shape=mxgraph.ios7.icons.monitor;" vertex="1" parent="1">
          <mxGeometry x="4.440892098500626e-16" y="366.75" width="103" height="86" as="geometry" />
        </mxCell>
        <mxCell id="duZjUQYaqQUHjqYcm7z--59" value="" style="verticalLabelPosition=bottom;html=1;verticalAlign=top;align=center;strokeColor=none;fillColor=#00BEF2;shape=mxgraph.azure.azure_subscription;" vertex="1" parent="1">
          <mxGeometry x="23.669999999999998" y="378" width="50.89" height="41" as="geometry" />
        </mxCell>
        <mxCell id="duZjUQYaqQUHjqYcm7z--61" value="Azure Monitor" style="text;strokeColor=none;fillColor=none;html=1;align=center;verticalAlign=middle;whiteSpace=wrap;rounded=0;fontSize=16;" vertex="1" parent="1">
          <mxGeometry x="-45" y="466" width="193" height="30" as="geometry" />
        </mxCell>
        <mxCell id="duZjUQYaqQUHjqYcm7z--62" value="" style="endArrow=classic;html=1;rounded=0;fontSize=12;startSize=8;endSize=8;curved=1;exitX=0;exitY=0.5;exitDx=0;exitDy=0;entryX=1;entryY=0.5;entryDx=0;entryDy=0;" edge="1" parent="1" source="duZjUQYaqQUHjqYcm7z--51" target="duZjUQYaqQUHjqYcm7z--57">
          <mxGeometry width="50" height="50" relative="1" as="geometry">
            <mxPoint x="202" y="33" as="sourcePoint" />
            <mxPoint x="377" y="33" as="targetPoint" />
          </mxGeometry>
        </mxCell>
        <mxCell id="duZjUQYaqQUHjqYcm7z--63" value="" style="verticalLabelPosition=bottom;html=1;verticalAlign=top;align=center;strokeColor=none;fillColor=#00BEF2;shape=mxgraph.azure.azure_marketplace;" vertex="1" parent="1">
          <mxGeometry x="448.5" y="355" width="75" height="93" as="geometry" />
        </mxCell>
        <mxCell id="duZjUQYaqQUHjqYcm7z--55" value="" style="image;aspect=fixed;html=1;points=[];align=center;fontSize=12;image=img/lib/azure2/general/Preview_Features.svg;" vertex="1" parent="1">
          <mxGeometry x="508" y="395" width="60" height="60" as="geometry" />
        </mxCell>
        <mxCell id="duZjUQYaqQUHjqYcm7z--64" value="" style="rounded=0;whiteSpace=wrap;html=1;" vertex="1" parent="1">
          <mxGeometry x="-570.5" y="303" width="291" height="300" as="geometry" />
        </mxCell>
        <mxCell id="duZjUQYaqQUHjqYcm7z--65" value="" style="endArrow=classic;html=1;rounded=0;fontSize=12;startSize=8;endSize=8;curved=1;exitX=0;exitY=0.5;exitDx=0;exitDy=0;entryX=1;entryY=0.5;entryDx=0;entryDy=0;" edge="1" parent="1" source="duZjUQYaqQUHjqYcm7z--57" target="duZjUQYaqQUHjqYcm7z--64">
          <mxGeometry width="50" height="50" relative="1" as="geometry">
            <mxPoint x="377" y="465" as="sourcePoint" />
            <mxPoint x="205" y="465" as="targetPoint" />
          </mxGeometry>
        </mxCell>
        <mxCell id="duZjUQYaqQUHjqYcm7z--66" value="Zabezpieczenia" style="text;strokeColor=none;fillColor=none;html=1;align=center;verticalAlign=middle;whiteSpace=wrap;rounded=0;fontSize=16;" vertex="1" parent="1">
          <mxGeometry x="-516.5" y="258" width="193" height="30" as="geometry" />
        </mxCell>
        <mxCell id="duZjUQYaqQUHjqYcm7z--67" value="" style="image;aspect=fixed;perimeter=ellipsePerimeter;html=1;align=center;shadow=0;dashed=0;spacingTop=3;image=img/lib/active_directory/sub_site.svg;" vertex="1" parent="1">
          <mxGeometry x="-472" y="366.75" width="89.53" height="77" as="geometry" />
        </mxCell>
        <mxCell id="duZjUQYaqQUHjqYcm7z--68" value="Azure role-based access control" style="text;strokeColor=none;fillColor=none;html=1;align=center;verticalAlign=middle;whiteSpace=wrap;rounded=0;fontSize=16;" vertex="1" parent="1">
          <mxGeometry x="-526.73" y="472.5" width="193" height="30" as="geometry" />
        </mxCell>
      </root>
    </mxGraphModel>
  </diagram>
</mxfile>
